<svg width="16" height="16" viewBox="0 0 24 24" fill="none" xmlns="http://www.w3.org/2000/svg">
  <path d="M12 15C13.6569 15 15 13.6569 15 12C15 10.3431 13.6569 9 12 9C10.3431 9 9 10.3431 9 12C9 13.6569 10.3431 15 12 15Z" stroke="#F5F5DC" stroke-width="2" stroke-linecap="round" stroke-linejoin="round"/>
  <path d="M19.4 15C19.2669 15.3016 19.227 15.6362 19.2857 15.9606C19.3444 16.285 19.4993 16.5834 19.726 16.81L19.81 16.894C20.0367 17.1207 20.1916 17.4191 20.2503 17.7435C20.309 18.0679 20.2691 18.4025 20.136 18.704L18.97 21.26C18.8369 21.5616 18.6178 21.8144 18.3438 21.9838C18.0698 22.1532 17.7544 22.2309 17.44 22.206H16.66C16.3456 22.2309 16.0302 22.1532 15.7562 21.9838C15.4822 21.8144 15.2631 21.5616 15.13 21.26L14.27 19.28C14.1369 18.9784 13.9178 18.7256 13.6438 18.5562C13.3698 18.3868 13.0544 18.3091 12.74 18.334H12C11.6856 18.3091 11.3702 18.3868 11.0962 18.5562C10.8222 18.7256 10.6031 18.9784 10.47 19.28L9.61 21.26C9.4769 21.5616 9.2578 21.8144 8.9838 21.9838C8.7098 22.1532 8.3944 22.2309 8.08 22.206H7.3C6.9856 22.2309 6.6702 22.1532 6.3962 21.9838C6.1222 21.8144 5.9031 21.5616 5.77 21.26L4.604 18.704C4.4709 18.4025 4.431 18.0679 4.4897 17.7435C4.3956 17.4191 4.2407 17.1207 4.014 16.894L3.93 16.81C3.7033 16.5834 3.5484 16.285 3.4897 15.9606C3.431 15.6362 3.4709 15.3016 3.604 15L1.5 12L3.604 9C3.7371 8.6984 3.777 8.3638 3.7183 8.0394C3.6596 7.715 3.5047 7.4166 3.278 7.19L3.194 7.106C2.9673 6.8793 2.8124 6.5809 2.7537 6.2565C2.695 5.9321 2.7349 5.5975 2.868 5.296L4.034 2.74C4.1671 2.4384 4.3862 2.1856 4.6602 2.0162C4.9342 1.8468 5.2496 1.7691 5.564 1.794H6.344C6.6584 1.7691 6.9738 1.8468 7.2478 2.0162C7.5218 2.1856 7.7409 2.4384 7.874 2.74L8.734 4.72C8.8671 5.0216 9.0862 5.2744 9.3602 5.4438C9.6342 5.6132 9.9496 5.6909 10.264 5.666H11.004C11.3184 5.6909 11.6338 5.6132 11.9078 5.4438C12.1818 5.2744 12.4009 5.0216 12.534 4.72L13.394 2.74C13.5271 2.4384 13.7462 2.1856 14.0202 2.0162C14.2942 1.8468 14.6096 1.7691 14.924 1.794H15.704C16.0184 1.7691 16.3338 1.8468 16.6078 2.0162C16.8818 2.1856 17.1009 2.4384 17.234 2.74L18.4 5.296C18.5331 5.5975 18.573 5.9321 18.5143 6.2565C18.4556 6.5809 18.3007 6.8793 18.074 7.106L17.99 7.19C17.7633 7.4166 17.6084 7.715 17.5497 8.0394C17.491 8.3638 17.5309 8.6984 17.664 9L19.5 12L17.664 15Z" stroke="#F5F5DC" stroke-width="2" stroke-linecap="round" stroke-linejoin="round"/>
</svg>