<svg width="16" height="16" viewBox="0 0 24 24" fill="none" xmlns="http://www.w3.org/2000/svg">
  <path d="M12 15C13.6569 15 15 13.6569 15 12C15 10.3431 13.6569 9 12 9C10.3431 9 9 10.3431 9 12C9 13.6569 10.3431 15 12 15Z" stroke="#DCDCAA" stroke-width="2" stroke-linecap="round" stroke-linejoin="round"/>
  <path d="M19.4 15C19.2669 15.3016 19.227 15.6362 19.2857 15.9606C19.3444 16.285 19.4993 16.5834 19.726 16.81L19.81 16.894C20.0367 17.1207 20.1916 17.4191 20.2503 17.7435C20.309 18.0679 20.2691 18.4025 20.136 18.704L18.97 21.26C18.8369 21.5616 18.6178 21.8144 18.3438 21.9838C18.0698 22.1532 17.7544 22.2309 17.44 22.206H16.66C16.3456 22.2309 16.0302 22.1532 15.7562 21.9838C15.4822 21.8144 15.2631 21.5616 15.13 21.26L14.27 19.28C14.1369 18.9784 13.9178 18.7256 13.6438 18.5562C13.3698 18.3868 13.0544 18.3091 12.74 18.334H12C11.6856 18.3091 11.3702 18.3868 11.0962 18.5562C10.8222 18.7256 10.6031 18.9784 10.47 19.28L9.61 21.26C9.4769 21.5616 9.2578 21.8144 8.9838 21.9838C8.7098 22.1532 8.3944 22.2309 8.08 22.206H7.3C6.9856 22.2309 6.6702 22.1532 6.3962 21.9838C6.1222 21.8144 5.9031 21.5616 5.77 21.26L4.604 18.704C4.4709 18.4025 4.431 18.0679 4.4897 17.7435C4.5484 17.4191 4.7033 17.1207 4.93 16.894L5.014 16.81C5.2407 16.5834 5.3956 16.285 5.4543 15.9606C5.513 15.6362 5.4731 15.3016 5.34 15L3.5 12L5.34 9C5.4731 8.6984 5.513 8.3638 5.4543 8.0394C5.3956 7.715 5.2407 7.4166 5.014 7.19L4.93 7.106C4.7033 6.8793 4.5484 6.5809 4.4897 6.2565C4.431 5.9321 4.4709 5.5975 4.604 5.296L5.77 2.74C5.9031 2.4384 6.1222 2.1856 6.3962 2.0162C6.6702 1.8468 6.9856 1.7691 7.3 1.794H8.08C8.3944 1.7691 8.7098 1.8468 8.9838 2.0162C9.2578 2.1856 9.4769 2.4384 9.61 2.74L10.47 4.72C10.6031 5.0216 10.8222 5.2744 11.0962 5.4438C11.3702 5.6132 11.6856 5.6909 12 5.666H12.74C13.0544 5.6909 13.3698 5.6132 13.6438 5.4438C13.9178 5.2744 14.1369 5.0216 14.27 4.72L15.13 2.74C15.2631 2.4384 15.4822 2.1856 15.7562 2.0162C16.0302 1.8468 16.3456 1.7691 16.66 1.794H17.44C17.7544 1.7691 18.0698 1.8468 18.3438 2.0162C18.6178 2.1856 18.8369 2.4384 18.97 2.74L20.136 5.296C20.2691 5.5975 20.309 5.9321 20.2503 6.2565C20.1916 6.5809 20.0367 6.8793 19.81 7.106L19.726 7.19C19.4993 7.4166 19.3444 7.715 19.2857 8.0394C19.227 8.3638 19.2669 8.6984 19.4 9L21.5 12L19.4 15Z" stroke="#DCDCAA" stroke-width="2" stroke-linecap="round" stroke-linejoin="round"/>
</svg>